<svg xmlns="http://www.w3.org/2000/svg" width="746" height="202" viewBox="0 0 746 202" role="img">
<title>Myron</title>
<desc>The Myron banner: a gold block wordmark reading MYRON, with three closing parentheses drawn as constellations of stars beside it, set in a field of cool steel and grey stars. The strapline reads eval, apply, repeat.</desc>
<rect width="746" height="202" rx="10" fill="#11131a"/>
<rect x="49" y="75.5" width="9" height="15" fill="#ffff87"/>
<rect x="58" y="75.5" width="9" height="15" fill="#ffff87"/>
<rect x="67" y="75.5" width="9" height="15" fill="#ffff87"/>
<rect x="76" y="75.5" width="9" height="15" fill="#ffff87"/>
<rect x="103" y="75.5" width="9" height="15" fill="#ffff87"/>
<rect x="112" y="75.5" width="9" height="15" fill="#ffff87"/>
<rect x="121" y="75.5" width="9" height="15" fill="#ffff87"/>
<rect x="130" y="75.5" width="9" height="15" fill="#ffff87"/>
<rect x="157" y="75.5" width="9" height="7.5" fill="#ffff87"/>
<rect x="166" y="75.5" width="9" height="15" fill="#ffff87"/>
<rect x="175" y="75.5" width="9" height="15" fill="#ffff87"/>
<rect x="184" y="83" width="9" height="7.5" fill="#ffff87"/>
<rect x="202" y="83" width="9" height="7.5" fill="#ffff87"/>
<rect x="211" y="75.5" width="9" height="15" fill="#ffff87"/>
<rect x="220" y="75.5" width="9" height="15" fill="#ffff87"/>
<rect x="229" y="75.5" width="9" height="7.5" fill="#ffff87"/>
<rect x="256" y="75.5" width="9" height="15" fill="#ffff87"/>
<rect x="265" y="75.5" width="9" height="15" fill="#ffff87"/>
<rect x="274" y="75.5" width="9" height="15" fill="#ffff87"/>
<rect x="283" y="75.5" width="9" height="15" fill="#ffff87"/>
<rect x="292" y="75.5" width="9" height="15" fill="#ffff87"/>
<rect x="301" y="75.5" width="9" height="15" fill="#ffff87"/>
<rect x="310" y="75.5" width="9" height="15" fill="#ffff87"/>
<rect x="319" y="75.5" width="9" height="15" fill="#ffff87"/>
<rect x="328" y="75.5" width="9" height="15" fill="#ffff87"/>
<rect x="355" y="75.5" width="9" height="15" fill="#ffff87"/>
<rect x="364" y="75.5" width="9" height="15" fill="#ffff87"/>
<rect x="373" y="75.5" width="9" height="15" fill="#ffff87"/>
<rect x="382" y="75.5" width="9" height="15" fill="#ffff87"/>
<rect x="391" y="75.5" width="9" height="15" fill="#ffff87"/>
<rect x="400" y="75.5" width="9" height="15" fill="#ffff87"/>
<rect x="409" y="75.5" width="9" height="15" fill="#ffff87"/>
<rect x="418" y="75.5" width="9" height="15" fill="#ffff87"/>
<rect x="427" y="75.5" width="9" height="15" fill="#ffff87"/>
<rect x="454" y="75.5" width="9" height="15" fill="#ffff87"/>
<rect x="463" y="75.5" width="9" height="15" fill="#ffff87"/>
<rect x="472" y="75.5" width="9" height="15" fill="#ffff87"/>
<rect x="481" y="83" width="9" height="7.5" fill="#ffff87"/>
<rect x="517" y="75.5" width="9" height="15" fill="#ffff87"/>
<rect x="526" y="75.5" width="9" height="15" fill="#ffff87"/>
<rect x="49" y="93.5" width="9" height="15" fill="#ffd700"/>
<rect x="58" y="93.5" width="9" height="15" fill="#ffd700"/>
<rect x="76" y="93.5" width="9" height="15" fill="#ffd700"/>
<rect x="85" y="93.5" width="9" height="15" fill="#ffd700"/>
<rect x="94" y="93.5" width="9" height="15" fill="#ffd700"/>
<rect x="103" y="93.5" width="9" height="15" fill="#ffd700"/>
<rect x="121" y="93.5" width="9" height="15" fill="#ffd700"/>
<rect x="130" y="93.5" width="9" height="15" fill="#ffd700"/>
<rect x="175" y="93.5" width="9" height="7.5" fill="#ffd700"/>
<rect x="184" y="93.5" width="9" height="15" fill="#ffd700"/>
<rect x="193" y="93.5" width="9" height="15" fill="#ffd700"/>
<rect x="202" y="93.5" width="9" height="15" fill="#ffd700"/>
<rect x="211" y="93.5" width="9" height="7.5" fill="#ffd700"/>
<rect x="256" y="93.5" width="9" height="15" fill="#ffd700"/>
<rect x="265" y="93.5" width="9" height="15" fill="#ffd700"/>
<rect x="319" y="93.5" width="9" height="15" fill="#ffd700"/>
<rect x="328" y="93.5" width="9" height="15" fill="#ffd700"/>
<rect x="355" y="93.5" width="9" height="15" fill="#ffd700"/>
<rect x="364" y="93.5" width="9" height="15" fill="#ffd700"/>
<rect x="418" y="93.5" width="9" height="15" fill="#ffd700"/>
<rect x="427" y="93.5" width="9" height="15" fill="#ffd700"/>
<rect x="454" y="93.5" width="9" height="15" fill="#ffd700"/>
<rect x="463" y="93.5" width="9" height="15" fill="#ffd700"/>
<rect x="472" y="93.5" width="9" height="7.5" fill="#ffd700"/>
<rect x="481" y="93.5" width="9" height="15" fill="#ffd700"/>
<rect x="490" y="101" width="9" height="7.5" fill="#ffd700"/>
<rect x="517" y="93.5" width="9" height="15" fill="#ffd700"/>
<rect x="526" y="93.5" width="9" height="15" fill="#ffd700"/>
<rect x="49" y="111.5" width="9" height="15" fill="#ffaf00"/>
<rect x="58" y="111.5" width="9" height="15" fill="#ffaf00"/>
<rect x="85" y="111.5" width="9" height="15" fill="#ffaf00"/>
<rect x="94" y="111.5" width="9" height="15" fill="#ffaf00"/>
<rect x="121" y="111.5" width="9" height="15" fill="#ffaf00"/>
<rect x="130" y="111.5" width="9" height="15" fill="#ffaf00"/>
<rect x="184" y="111.5" width="9" height="15" fill="#ffaf00"/>
<rect x="193" y="111.5" width="9" height="15" fill="#ffaf00"/>
<rect x="256" y="111.5" width="9" height="15" fill="#ffaf00"/>
<rect x="265" y="111.5" width="9" height="15" fill="#ffaf00"/>
<rect x="274" y="111.5" width="9" height="15" fill="#ffaf00"/>
<rect x="283" y="111.5" width="9" height="15" fill="#ffaf00"/>
<rect x="292" y="111.5" width="9" height="15" fill="#ffaf00"/>
<rect x="301" y="111.5" width="9" height="15" fill="#ffaf00"/>
<rect x="310" y="111.5" width="9" height="15" fill="#ffaf00"/>
<rect x="319" y="111.5" width="9" height="15" fill="#ffaf00"/>
<rect x="328" y="111.5" width="9" height="15" fill="#ffaf00"/>
<rect x="355" y="111.5" width="9" height="15" fill="#ffaf00"/>
<rect x="364" y="111.5" width="9" height="15" fill="#ffaf00"/>
<rect x="418" y="111.5" width="9" height="15" fill="#ffaf00"/>
<rect x="427" y="111.5" width="9" height="15" fill="#ffaf00"/>
<rect x="454" y="111.5" width="9" height="15" fill="#ffaf00"/>
<rect x="463" y="111.5" width="9" height="15" fill="#ffaf00"/>
<rect x="490" y="111.5" width="9" height="7.5" fill="#ffaf00"/>
<rect x="499" y="111.5" width="9" height="15" fill="#ffaf00"/>
<rect x="508" y="119" width="9" height="7.5" fill="#ffaf00"/>
<rect x="517" y="111.5" width="9" height="15" fill="#ffaf00"/>
<rect x="526" y="111.5" width="9" height="15" fill="#ffaf00"/>
<rect x="49" y="129.5" width="9" height="15" fill="#ff8700"/>
<rect x="58" y="129.5" width="9" height="15" fill="#ff8700"/>
<rect x="121" y="129.5" width="9" height="15" fill="#ff8700"/>
<rect x="130" y="129.5" width="9" height="15" fill="#ff8700"/>
<rect x="184" y="129.5" width="9" height="15" fill="#ff8700"/>
<rect x="193" y="129.5" width="9" height="15" fill="#ff8700"/>
<rect x="256" y="129.5" width="9" height="15" fill="#ff8700"/>
<rect x="265" y="129.5" width="9" height="15" fill="#ff8700"/>
<rect x="301" y="129.5" width="9" height="15" fill="#ff8700"/>
<rect x="310" y="129.5" width="9" height="15" fill="#ff8700"/>
<rect x="319" y="129.5" width="9" height="15" fill="#ff8700"/>
<rect x="328" y="129.5" width="9" height="15" fill="#ff8700"/>
<rect x="355" y="129.5" width="9" height="15" fill="#ff8700"/>
<rect x="364" y="129.5" width="9" height="15" fill="#ff8700"/>
<rect x="373" y="129.5" width="9" height="15" fill="#ff8700"/>
<rect x="382" y="129.5" width="9" height="15" fill="#ff8700"/>
<rect x="391" y="129.5" width="9" height="15" fill="#ff8700"/>
<rect x="400" y="129.5" width="9" height="15" fill="#ff8700"/>
<rect x="409" y="129.5" width="9" height="15" fill="#ff8700"/>
<rect x="418" y="129.5" width="9" height="15" fill="#ff8700"/>
<rect x="427" y="129.5" width="9" height="15" fill="#ff8700"/>
<rect x="454" y="129.5" width="9" height="15" fill="#ff8700"/>
<rect x="463" y="129.5" width="9" height="15" fill="#ff8700"/>
<rect x="499" y="129.5" width="9" height="7.5" fill="#ff8700"/>
<rect x="508" y="129.5" width="9" height="15" fill="#ff8700"/>
<rect x="517" y="129.5" width="9" height="15" fill="#ff8700"/>
<rect x="526" y="129.5" width="9" height="15" fill="#ff8700"/>
<text x="22" y="33" fill="#5f5f5f" font-size="15" font-family="ui-monospace,SFMono-Regular,Menlo,Consolas,&quot;DejaVu Sans Mono&quot;,monospace">.</text>
<text x="103" y="33" fill="#5f87af" font-size="15" font-family="ui-monospace,SFMono-Regular,Menlo,Consolas,&quot;DejaVu Sans Mono&quot;,monospace">·</text>
<text x="184" y="33" fill="#5f5f5f" font-size="15" font-family="ui-monospace,SFMono-Regular,Menlo,Consolas,&quot;DejaVu Sans Mono&quot;,monospace">.</text>
<text x="256" y="33" fill="#5f8787" font-size="15" font-family="ui-monospace,SFMono-Regular,Menlo,Consolas,&quot;DejaVu Sans Mono&quot;,monospace">·</text>
<text x="319" y="33" fill="#5f5f87" font-size="15" font-family="ui-monospace,SFMono-Regular,Menlo,Consolas,&quot;DejaVu Sans Mono&quot;,monospace">.</text>
<text x="391" y="33" fill="#5f87af" font-size="15" font-family="ui-monospace,SFMono-Regular,Menlo,Consolas,&quot;DejaVu Sans Mono&quot;,monospace">·</text>
<text x="454" y="33" fill="#5f5f5f" font-size="15" font-family="ui-monospace,SFMono-Regular,Menlo,Consolas,&quot;DejaVu Sans Mono&quot;,monospace">.</text>
<text x="517" y="33" fill="#5f87af" font-size="15" font-family="ui-monospace,SFMono-Regular,Menlo,Consolas,&quot;DejaVu Sans Mono&quot;,monospace">·</text>
<text x="580" y="33" fill="#5f5f5f" font-size="15" font-family="ui-monospace,SFMono-Regular,Menlo,Consolas,&quot;DejaVu Sans Mono&quot;,monospace">.</text>
<text x="643" y="33" fill="#5f87af" font-size="15" font-family="ui-monospace,SFMono-Regular,Menlo,Consolas,&quot;DejaVu Sans Mono&quot;,monospace">·</text>
<text x="715" y="33" fill="#5f5f87" font-size="15" font-family="ui-monospace,SFMono-Regular,Menlo,Consolas,&quot;DejaVu Sans Mono&quot;,monospace">.</text>
<text x="58" y="51" fill="#5f87af" font-size="15" font-family="ui-monospace,SFMono-Regular,Menlo,Consolas,&quot;DejaVu Sans Mono&quot;,monospace">·</text>
<text x="130" y="51" fill="#eeeeee" font-size="15" font-family="ui-monospace,SFMono-Regular,Menlo,Consolas,&quot;DejaVu Sans Mono&quot;,monospace">*</text>
<text x="211" y="51" fill="#5f5f5f" font-size="15" font-family="ui-monospace,SFMono-Regular,Menlo,Consolas,&quot;DejaVu Sans Mono&quot;,monospace">.</text>
<text x="283" y="51" fill="#5f8787" font-size="15" font-family="ui-monospace,SFMono-Regular,Menlo,Consolas,&quot;DejaVu Sans Mono&quot;,monospace">·</text>
<text x="346" y="51" fill="#afd7d7" font-size="15" font-family="ui-monospace,SFMono-Regular,Menlo,Consolas,&quot;DejaVu Sans Mono&quot;,monospace">+</text>
<text x="418" y="51" fill="#5f5f87" font-size="15" font-family="ui-monospace,SFMono-Regular,Menlo,Consolas,&quot;DejaVu Sans Mono&quot;,monospace">.</text>
<text x="481" y="51" fill="#5f8787" font-size="15" font-family="ui-monospace,SFMono-Regular,Menlo,Consolas,&quot;DejaVu Sans Mono&quot;,monospace">·</text>
<text x="535" y="51" fill="#5f5f5f" font-size="15" font-family="ui-monospace,SFMono-Regular,Menlo,Consolas,&quot;DejaVu Sans Mono&quot;,monospace">.</text>
<text x="598" y="51" fill="#5f87af" font-size="15" font-family="ui-monospace,SFMono-Regular,Menlo,Consolas,&quot;DejaVu Sans Mono&quot;,monospace">·</text>
<text x="661" y="51" fill="#5f5f5f" font-size="15" font-family="ui-monospace,SFMono-Regular,Menlo,Consolas,&quot;DejaVu Sans Mono&quot;,monospace">.</text>
<text x="94" y="87" fill="#5f8787" font-size="15" font-family="ui-monospace,SFMono-Regular,Menlo,Consolas,&quot;DejaVu Sans Mono&quot;,monospace">·</text>
<text x="562" y="87" fill="#ffff87" font-size="15" font-family="ui-monospace,SFMono-Regular,Menlo,Consolas,&quot;DejaVu Sans Mono&quot;,monospace">*</text>
<text x="625" y="87" fill="#ffff87" font-size="15" font-family="ui-monospace,SFMono-Regular,Menlo,Consolas,&quot;DejaVu Sans Mono&quot;,monospace">*</text>
<text x="688" y="87" fill="#ffff87" font-size="15" font-family="ui-monospace,SFMono-Regular,Menlo,Consolas,&quot;DejaVu Sans Mono&quot;,monospace">*</text>
<text x="22" y="105" fill="#eeeeee" font-size="15" font-family="ui-monospace,SFMono-Regular,Menlo,Consolas,&quot;DejaVu Sans Mono&quot;,monospace">*</text>
<text x="292" y="105" fill="#5f87af" font-size="15" font-family="ui-monospace,SFMono-Regular,Menlo,Consolas,&quot;DejaVu Sans Mono&quot;,monospace">·</text>
<text x="508" y="105" fill="#5f87af" font-size="15" font-family="ui-monospace,SFMono-Regular,Menlo,Consolas,&quot;DejaVu Sans Mono&quot;,monospace">·</text>
<text x="571 580" y="105" fill="#ffd700" font-size="15" font-family="ui-monospace,SFMono-Regular,Menlo,Consolas,&quot;DejaVu Sans Mono&quot;,monospace">**</text>
<text x="634 643" y="105" fill="#ffd700" font-size="15" font-family="ui-monospace,SFMono-Regular,Menlo,Consolas,&quot;DejaVu Sans Mono&quot;,monospace">**</text>
<text x="670" y="105" fill="#5f5f87" font-size="15" font-family="ui-monospace,SFMono-Regular,Menlo,Consolas,&quot;DejaVu Sans Mono&quot;,monospace">.</text>
<text x="697 706" y="105" fill="#ffd700" font-size="15" font-family="ui-monospace,SFMono-Regular,Menlo,Consolas,&quot;DejaVu Sans Mono&quot;,monospace">**</text>
<text x="391" y="123" fill="#5f87af" font-size="15" font-family="ui-monospace,SFMono-Regular,Menlo,Consolas,&quot;DejaVu Sans Mono&quot;,monospace">·</text>
<text x="580 589" y="123" fill="#ffaf00" font-size="15" font-family="ui-monospace,SFMono-Regular,Menlo,Consolas,&quot;DejaVu Sans Mono&quot;,monospace">**</text>
<text x="616" y="123" fill="#5f5f5f" font-size="15" font-family="ui-monospace,SFMono-Regular,Menlo,Consolas,&quot;DejaVu Sans Mono&quot;,monospace">.</text>
<text x="643 652" y="123" fill="#ffaf00" font-size="15" font-family="ui-monospace,SFMono-Regular,Menlo,Consolas,&quot;DejaVu Sans Mono&quot;,monospace">**</text>
<text x="706 715" y="123" fill="#ffaf00" font-size="15" font-family="ui-monospace,SFMono-Regular,Menlo,Consolas,&quot;DejaVu Sans Mono&quot;,monospace">**</text>
<text x="31" y="141" fill="#5f8787" font-size="15" font-family="ui-monospace,SFMono-Regular,Menlo,Consolas,&quot;DejaVu Sans Mono&quot;,monospace">·</text>
<text x="283" y="141" fill="#5f8787" font-size="15" font-family="ui-monospace,SFMono-Regular,Menlo,Consolas,&quot;DejaVu Sans Mono&quot;,monospace">·</text>
<text x="571 580" y="141" fill="#ff8700" font-size="15" font-family="ui-monospace,SFMono-Regular,Menlo,Consolas,&quot;DejaVu Sans Mono&quot;,monospace">**</text>
<text x="634 643" y="141" fill="#ff8700" font-size="15" font-family="ui-monospace,SFMono-Regular,Menlo,Consolas,&quot;DejaVu Sans Mono&quot;,monospace">**</text>
<text x="697 706" y="141" fill="#ff8700" font-size="15" font-family="ui-monospace,SFMono-Regular,Menlo,Consolas,&quot;DejaVu Sans Mono&quot;,monospace">**</text>
<text x="22" y="159" fill="#5f5f5f" font-size="15" font-family="ui-monospace,SFMono-Regular,Menlo,Consolas,&quot;DejaVu Sans Mono&quot;,monospace">.</text>
<text x="67" y="159" fill="#5f87af" font-size="15" font-family="ui-monospace,SFMono-Regular,Menlo,Consolas,&quot;DejaVu Sans Mono&quot;,monospace">·</text>
<text x="121" y="159" fill="#5f5f87" font-size="15" font-family="ui-monospace,SFMono-Regular,Menlo,Consolas,&quot;DejaVu Sans Mono&quot;,monospace">.</text>
<text x="202" y="159" fill="#d7ffff" font-size="15" font-family="ui-monospace,SFMono-Regular,Menlo,Consolas,&quot;DejaVu Sans Mono&quot;,monospace">*</text>
<text x="265" y="159" fill="#5f5f87" font-size="15" font-family="ui-monospace,SFMono-Regular,Menlo,Consolas,&quot;DejaVu Sans Mono&quot;,monospace">.</text>
<text x="328" y="159" fill="#5f8787" font-size="15" font-family="ui-monospace,SFMono-Regular,Menlo,Consolas,&quot;DejaVu Sans Mono&quot;,monospace">·</text>
<text x="364 373 382 391 400" y="159" fill="#808080" font-size="15" font-family="ui-monospace,SFMono-Regular,Menlo,Consolas,&quot;DejaVu Sans Mono&quot;,monospace">eval,</text>
<text x="418 427 436 445 454 463" y="159" fill="#808080" font-size="15" font-family="ui-monospace,SFMono-Regular,Menlo,Consolas,&quot;DejaVu Sans Mono&quot;,monospace">apply,</text>
<text x="481 490 499 508 517 526" y="159" fill="#808080" font-size="15" font-family="ui-monospace,SFMono-Regular,Menlo,Consolas,&quot;DejaVu Sans Mono&quot;,monospace">repeat</text>
<text x="562" y="159" fill="#ff5f00" font-size="15" font-family="ui-monospace,SFMono-Regular,Menlo,Consolas,&quot;DejaVu Sans Mono&quot;,monospace">*</text>
<text x="598" y="159" fill="#5f5f5f" font-size="15" font-family="ui-monospace,SFMono-Regular,Menlo,Consolas,&quot;DejaVu Sans Mono&quot;,monospace">.</text>
<text x="625" y="159" fill="#ff5f00" font-size="15" font-family="ui-monospace,SFMono-Regular,Menlo,Consolas,&quot;DejaVu Sans Mono&quot;,monospace">*</text>
<text x="688" y="159" fill="#ff5f00" font-size="15" font-family="ui-monospace,SFMono-Regular,Menlo,Consolas,&quot;DejaVu Sans Mono&quot;,monospace">*</text>
<text x="103" y="177" fill="#5f8787" font-size="15" font-family="ui-monospace,SFMono-Regular,Menlo,Consolas,&quot;DejaVu Sans Mono&quot;,monospace">·</text>
<text x="175" y="177" fill="#5f5f5f" font-size="15" font-family="ui-monospace,SFMono-Regular,Menlo,Consolas,&quot;DejaVu Sans Mono&quot;,monospace">.</text>
<text x="247" y="177" fill="#5f8787" font-size="15" font-family="ui-monospace,SFMono-Regular,Menlo,Consolas,&quot;DejaVu Sans Mono&quot;,monospace">·</text>
<text x="310" y="177" fill="#5f5f87" font-size="15" font-family="ui-monospace,SFMono-Regular,Menlo,Consolas,&quot;DejaVu Sans Mono&quot;,monospace">.</text>
<text x="364" y="177" fill="#eeeeee" font-size="15" font-family="ui-monospace,SFMono-Regular,Menlo,Consolas,&quot;DejaVu Sans Mono&quot;,monospace">*</text>
<text x="427" y="177" fill="#5f5f5f" font-size="15" font-family="ui-monospace,SFMono-Regular,Menlo,Consolas,&quot;DejaVu Sans Mono&quot;,monospace">.</text>
<text x="490" y="177" fill="#5f87af" font-size="15" font-family="ui-monospace,SFMono-Regular,Menlo,Consolas,&quot;DejaVu Sans Mono&quot;,monospace">·</text>
<text x="589" y="177" fill="#5f8787" font-size="15" font-family="ui-monospace,SFMono-Regular,Menlo,Consolas,&quot;DejaVu Sans Mono&quot;,monospace">·</text>
<text x="652" y="177" fill="#5f5f87" font-size="15" font-family="ui-monospace,SFMono-Regular,Menlo,Consolas,&quot;DejaVu Sans Mono&quot;,monospace">.</text>
<text x="715" y="177" fill="#5f8787" font-size="15" font-family="ui-monospace,SFMono-Regular,Menlo,Consolas,&quot;DejaVu Sans Mono&quot;,monospace">·</text>
</svg>